<svg xmlns="http://www.w3.org/2000/svg" xmlns:xlink="http://www.w3.org/1999/xlink" viewBox="0 0 936.64 207.7"><defs><style>.cls-1,.cls-10{fill:none;}.cls-2{clip-path:url(#clip-path);}.cls-3{isolation:isolate;}.cls-4{fill:#fff;}.cls-5{clip-path:url(#clip-path-2);}.cls-6{fill:#b7362b;}.cls-7{fill:#ac2024;}.cls-8{fill:#a21f24;}.cls-9{fill:#891c21;}.cls-10{stroke:#fff;stroke-miterlimit:10;stroke-width:0.5px;}</style><clipPath id="clip-path" transform="translate(-19.49 -10.76)"><rect class="cls-1" x="186" y="22.7" width="779" height="202"/></clipPath><clipPath id="clip-path-2" transform="translate(-19.49 -10.76)"><rect class="cls-1" width="173.54" height="173.54"/></clipPath></defs><g id="レイヤー_2" data-name="レイヤー 2"><g id="レイヤー_1-2" data-name="レイヤー 1"><g id="グループ_89" data-name="グループ 89"><g class="cls-2"><g id="マスクグループ_3" data-name="マスクグループ 3"><g id="グループ_30" data-name="グループ 30"><g id="グループ_33" data-name="グループ 33"><g id="RED-2" class="cls-3"><g class="cls-3"><path class="cls-4" d="M194.46,31.4h41a70,70,0,0,1,18.61,2.21,40,40,0,0,1,13.28,6.19,26,26,0,0,1,8,9.44A26.8,26.8,0,0,1,278,61.12a21.94,21.94,0,0,1-1.81,8.8,25.86,25.86,0,0,1-5.1,7.68,36.62,36.62,0,0,1-7.95,6.24,47.77,47.77,0,0,1-10.25,4.47l38.93,52.39H262.75L226,91.2H221.2v49.5H194.46ZM221.2,81.71h5.87a29.48,29.48,0,0,0,9.08-1.35,21.56,21.56,0,0,0,7.27-3.93,18.39,18.39,0,0,0,4.84-6.33A19.64,19.64,0,0,0,250,61.66a22.07,22.07,0,0,0-1.36-7.86,19.4,19.4,0,0,0-3.7-6.23,16.7,16.7,0,0,0-5.65-4.11A17.13,17.13,0,0,0,232.13,42H221.2Z" transform="translate(-19.49 -10.76)"/><path class="cls-4" d="M385.52,31.4v9.21H330.68V76.74h45.53v9.4H330.68V129.5h54.84v11.2H304V31.4Z" transform="translate(-19.49 -10.76)"/><path class="cls-4" d="M407.83,31.4h39.65A104.57,104.57,0,0,1,475.58,35,66.6,66.6,0,0,1,497.66,45.4a48.35,48.35,0,0,1,14.41,16.85,49,49,0,0,1,5.15,22.81,54.43,54.43,0,0,1-4.34,21.67,50.08,50.08,0,0,1-12.69,17.66,61,61,0,0,1-20.55,11.93,82.3,82.3,0,0,1-27.91,4.38h-43.9Zm26.74,98.1h14.27a37.83,37.83,0,0,0,14.9-2.94,35.28,35.28,0,0,0,12.2-8.53,40.26,40.26,0,0,0,8.26-13.87,54.78,54.78,0,0,0,3-18.92,49.73,49.73,0,0,0-2.85-17.08,40.7,40.7,0,0,0-7.95-13.55,37,37,0,0,0-12.14-8.94,36.41,36.41,0,0,0-15.45-3.25H434.57Z" transform="translate(-19.49 -10.76)"/></g></g><g id="MINE-2" class="cls-3"><g class="cls-3"><path class="cls-4" d="M539.54,31.81h26.24l38,75.11,37.5-75.11H667V141.7H640V70L604.11,141.7H593.66l-37-72.48V141.7H539.54Z" transform="translate(-19.49 -10.76)"/><path class="cls-4" d="M695.11,31.81h27V141.7h-27Z" transform="translate(-19.49 -10.76)"/><path class="cls-4" d="M750.33,31.81H767.5l62.66,69.93V31.81h17V143.43H835.43l-68-77.2V141.7H750.33Z" transform="translate(-19.49 -10.76)"/><path class="cls-4" d="M956.13,31.81v9.26H901V77.4h45.77v9.44H901v43.6h55.13V141.7h-82V31.81Z" transform="translate(-19.49 -10.76)"/></g></g></g><g id="Vol.2-2" class="cls-3"><g class="cls-3"><path class="cls-4" d="M796.5,187.16l9.76,20.41,9.06-20.41H820l-13.3,30h-3.4l-14.28-30Z" transform="translate(-19.49 -10.76)"/><path class="cls-4" d="M841.82,217.12a13.61,13.61,0,0,1-4.92-.88,12.11,12.11,0,0,1-3.89-2.41,10.92,10.92,0,0,1-2.56-3.59,10.69,10.69,0,0,1-.93-4.45,12.1,12.1,0,0,1,.91-4.74A11.14,11.14,0,0,1,833,197.3a11.65,11.65,0,0,1,3.9-2.45,13.33,13.33,0,0,1,4.92-.88,13.66,13.66,0,0,1,4.93.87,12.18,12.18,0,0,1,3.92,2.38,11.09,11.09,0,0,1,2.59,3.55,10.44,10.44,0,0,1,.94,4.38,11.66,11.66,0,0,1-.94,4.64,12,12,0,0,1-6.5,6.39A12.76,12.76,0,0,1,841.82,217.12Zm.78-2.71a2.74,2.74,0,0,0,1.71-.6,5.28,5.28,0,0,0,1.35-1.61,9.41,9.41,0,0,0,.87-2.35,11.53,11.53,0,0,0,.32-2.79,23.39,23.39,0,0,0-.32-4,11.81,11.81,0,0,0-1-3.31,6,6,0,0,0-1.86-2.24,4.6,4.6,0,0,0-2.8-.83,2.43,2.43,0,0,0-1.54.58,5.47,5.47,0,0,0-1.3,1.58,9.85,9.85,0,0,0-.9,2.3,10.87,10.87,0,0,0-.34,2.76,20.2,20.2,0,0,0,.39,4.06,12.37,12.37,0,0,0,1.15,3.34,6.84,6.84,0,0,0,1.84,2.28A3.9,3.9,0,0,0,842.6,214.41Z" transform="translate(-19.49 -10.76)"/><path class="cls-4" d="M875.21,216.7h-6.69V185.47l6.69-1.87Z" transform="translate(-19.49 -10.76)"/><path class="cls-4" d="M890.41,214.16a3.08,3.08,0,0,1,.23-1.16,3.16,3.16,0,0,1,.64-1,2.93,2.93,0,0,1,.94-.65,3,3,0,0,1,1.17-.23,3,3,0,0,1,2.15.88,3.19,3.19,0,0,1,.65,1,3.08,3.08,0,0,1,.23,1.16,2.94,2.94,0,0,1-.23,1.17,3.32,3.32,0,0,1-.65,1,3,3,0,0,1-1,.64,2.89,2.89,0,0,1-1.18.23,2.84,2.84,0,0,1-1.17-.23,2.9,2.9,0,0,1-.94-.64,3.29,3.29,0,0,1-.64-1A2.94,2.94,0,0,1,890.41,214.16Z" transform="translate(-19.49 -10.76)"/></g><g class="cls-3"><path class="cls-4" d="M913,216.7v-2.19q5-4.72,8.65-8.34t6.19-6.38q2.55-2.78,4.12-4.83a27.78,27.78,0,0,0,2.47-3.67,11.8,11.8,0,0,0,1.17-3,12.91,12.91,0,0,0,.29-2.67,12.43,12.43,0,0,0-.49-3.5,9.16,9.16,0,0,0-1.46-3,7.38,7.38,0,0,0-2.42-2.09,7,7,0,0,0-3.36-.78,7.63,7.63,0,0,0-3,.63,9.57,9.57,0,0,0-2.7,1.71,11.28,11.28,0,0,0-2.07,2.56,9.78,9.78,0,0,0-1.17,3.11h-5.08a15.56,15.56,0,0,1,1.64-5.88,16.7,16.7,0,0,1,3.64-4.79,17.07,17.07,0,0,1,5.09-3.2,15.79,15.79,0,0,1,6-1.17,20.43,20.43,0,0,1,6.91,1.07,15.11,15.11,0,0,1,5,2.87,11.87,11.87,0,0,1,3,4.17,12.4,12.4,0,0,1,1,5,13.1,13.1,0,0,1-1.19,5.25,30.51,30.51,0,0,1-3.69,6,84.26,84.26,0,0,1-6.37,7.24q-3.87,4-9.22,9h23l-4.14,6.87Z" transform="translate(-19.49 -10.76)"/></g></g><g id="JAPAN-2" class="cls-3"><g class="cls-3"><path class="cls-4" d="M518.53,169.84h11.78V205a13.31,13.31,0,0,1-1.06,5.38,11.36,11.36,0,0,1-3.23,4.24,15.8,15.8,0,0,1-5.38,2.78,25,25,0,0,1-7.53,1,23,23,0,0,1-4.49-.41,23.35,23.35,0,0,1-7.12-2.69c-1-.6-2-1.2-2.95-1.8l3.29-4.23a17.4,17.4,0,0,0,1.8,1.46,14.86,14.86,0,0,0,2.33,1.36,15.65,15.65,0,0,0,2.77,1,11.71,11.71,0,0,0,3.1.4,7,7,0,0,0,4.89-1.64,5.69,5.69,0,0,0,1.8-4.41Z" transform="translate(-19.49 -10.76)"/><path class="cls-4" d="M564.68,168.78l22.43,48.92h-12l-6-13.09H550.52l-6.29,13.09h-8l23.37-48.92Zm-12,31.36h14.43l-7.08-15.46Z" transform="translate(-19.49 -10.76)"/><path class="cls-4" d="M593,169.84h16.65a32.54,32.54,0,0,1,7.56.85,19.54,19.54,0,0,1,6.11,2.54,12.78,12.78,0,0,1,4.09,4.19,11.22,11.22,0,0,1,1.5,5.87,11.47,11.47,0,0,1-1.48,5.93,13.23,13.23,0,0,1-3.9,4.22,17.67,17.67,0,0,1-5.49,2.51,24.44,24.44,0,0,1-6.33.83h-6.92V217.7H593Zm11.79,22.63h3.83a8,8,0,0,0,3.48-.73,7,7,0,0,0,2.49-2,8.62,8.62,0,0,0,1.49-2.87,11.55,11.55,0,0,0,.49-3.4,10.52,10.52,0,0,0-.65-3.86,8.09,8.09,0,0,0-1.78-2.82,7.53,7.53,0,0,0-2.63-1.75,8.84,8.84,0,0,0-3.24-.59h-3.48Z" transform="translate(-19.49 -10.76)"/><path class="cls-4" d="M655.69,168.78l22.42,48.92h-12l-6-13.09H641.53l-6.29,13.09h-8l23.38-48.92Zm-12,31.36h14.44l-7.08-15.46Z" transform="translate(-19.49 -10.76)"/><path class="cls-4" d="M684.05,169.84h7.47l27.29,30.46V169.84h7.4v48.61h-5.1l-29.63-33.62V217.7h-7.43Z" transform="translate(-19.49 -10.76)"/></g></g></g></g></g><g id="グループ_62" data-name="グループ 62"><g class="cls-5"><g id="グループ_58" data-name="グループ 58"><path id="パス_381" data-name="パス 381" class="cls-6" d="M103.36,57,88.14,66.37v20.4L104.56,77Z" transform="translate(-19.49 -10.76)"/><path id="パス_382" data-name="パス 382" class="cls-7" d="M121.55,85.36,105.9,76.72l-17.76,10,16.56,9.5Z" transform="translate(-19.49 -10.76)"/><path id="パス_383" data-name="パス 383" class="cls-8" d="M102.56,116.94l1.79-17.78L88.14,86.77l-2.23,19Z" transform="translate(-19.49 -10.76)"/><path id="パス_384" data-name="パス 384" class="cls-9" d="M54.71,86.12,69.8,95.7l18.34-8.93L72.2,76.27Z" transform="translate(-19.49 -10.76)"/><path id="パス_385" data-name="パス 385" class="cls-9" d="M71.09,58l-.2,17.88L88.14,86.77l.54-19.08Z" transform="translate(-19.49 -10.76)"/><path id="パス_386" data-name="パス 386" class="cls-9" d="M84.63,87.15,69.41,96.52v20.4l16.42-9.73Z" transform="translate(-19.49 -10.76)"/><path id="パス_387" data-name="パス 387" class="cls-4" d="M20.62,116.94a1.62,1.62,0,0,0-.81,1A1.68,1.68,0,0,0,21,120h0l1.67.47-1.45.81-.28.18a1.76,1.76,0,0,0-.57,1.14,1.65,1.65,0,0,0,.2.95,1.62,1.62,0,0,0,1.32.85,1.54,1.54,0,0,0,1-.2l1.44-.8-.47,1.65c0,.12-.05.23-.07.34a1.72,1.72,0,0,0,1.22,1.75l.32,0A1.68,1.68,0,0,0,27,126l1.4-4.88,6.45-3.6-2.55,9a1.67,1.67,0,0,0,1.15,2.08h0a1,1,0,0,0,.33.06,1.67,1.67,0,0,0,1.74-1.21L39,115.23l7.91-4.39-4.8,16.82a1.68,1.68,0,0,0,1.15,2.06,1.57,1.57,0,0,0,1.27-.15,1.64,1.64,0,0,0,.8-1l5.72-20,16.62-9.23-1.48,17.85L58.26,117a1.68,1.68,0,0,0-1.72,1.64,1.7,1.7,0,0,0,.26,1,.63.63,0,0,1,.1.12l.11.12.05,0a1.58,1.58,0,0,0,1.12.47l6.15.16L61.58,125l-4.48-.1a1.68,1.68,0,0,0-.08,3.35l2.55.07-3.68,6a1.67,1.67,0,0,0,.55,2.29h0a1.39,1.39,0,0,0,.35.16,1.33,1.33,0,0,0,.3.23,1.67,1.67,0,0,0,2.29-.59L63,130.33l1.25,2.22a1.68,1.68,0,0,0,1.68.83,1.72,1.72,0,0,0,.59-.2,1.68,1.68,0,0,0,.8-1v0a2.61,2.61,0,0,0,.06-.27,0,0,0,0,1,0,0,1.75,1.75,0,0,0-.2-.92l-1-1.73L64.94,127l2.69-4.55.58,1,2.46,4.35a1.66,1.66,0,0,0,2.25.64l0,0a1.67,1.67,0,0,0,.64-2.27l-3.91-6.9,15-9.7-.31,19-15,14.5a1.67,1.67,0,0,0-.24,2.1,1.57,1.57,0,0,0,.2.25,1.65,1.65,0,0,0,1.81.4,1.33,1.33,0,0,0,.55-.35l12.58-12.16-.15,9.05-9.09,8.78a1.68,1.68,0,0,0,2.28,2.47l0-.06,6.69-6.47-.13,7.4L80.33,158a1.7,1.7,0,0,0-.49,1,1.68,1.68,0,0,0,2.81,1.42h0l1.25-1.21,0,1.65a1,1,0,0,0,0,.34,1.48,1.48,0,0,0,.22.55,1.65,1.65,0,0,0,1.4.8,1.68,1.68,0,0,0,1.66-1.3,1.87,1.87,0,0,0,0-.34l0-1.66,1.2,1.25a1.69,1.69,0,0,0,2.38,0,1.65,1.65,0,0,0,.5-1.18,1.69,1.69,0,0,0-.46-1.19l-3.55-3.66.12-7.37,6.48,6.69a1.67,1.67,0,0,0,2.35.05h0a2.85,2.85,0,0,0,.23-.26,1.67,1.67,0,0,0-.2-2.11l-8.79-9.08.15-9.06L99.84,145.9a1.67,1.67,0,1,0,2.48-2.24.6.6,0,0,0-.08-.08l-14.49-15,.31-19,14.73,10.2-1.23,2-2.91,4.75a1.86,1.86,0,0,0-.21,1.18.3.3,0,0,1,0,.1l0,.07a2.17,2.17,0,0,0,.07.24,1.8,1.8,0,0,1,.11.2.56.56,0,0,1,0,.08,1.91,1.91,0,0,0,.49.45,1.69,1.69,0,0,0,1,.24,1.73,1.73,0,0,0,.32,0,1.75,1.75,0,0,0,1-.77l3.21-5.25,2.54,4.65-2.34,3.81c-.05.11-.1.22-.14.33a1.67,1.67,0,0,0-.05.94,1.71,1.71,0,0,0,.75,1,1.69,1.69,0,0,0,2.31-.56l1.32-2.17,3.38,6.2.2.28a1.66,1.66,0,0,0,2.08.37,1.29,1.29,0,0,0,.3-.22,1.17,1.17,0,0,0,.35-.14,1.67,1.67,0,0,0,.65-2.26h0l-3.48-6.15,2.55,0a1.68,1.68,0,0,0,1.65-1.33,1.75,1.75,0,0,0,0-.33,1.69,1.69,0,0,0-1.65-1.7l-3.43,0-1.06,0-2.54-4.47-.06-.12,6.16,0,.18,0h.15l.14,0a.48.48,0,0,0,.18-.06h0a1.68,1.68,0,0,0,0-3.07,1.76,1.76,0,0,0-.64-.15l-7.93-.05L106,111l-.55-11,16.31,9.77,5,20.22a1.68,1.68,0,0,0,1.69,1.27l.35,0a1.66,1.66,0,0,0,.9-.61,1.63,1.63,0,0,0,.31-1.43l-4.24-17,7.76,4.67,3.06,12.26a1.69,1.69,0,0,0,1.7,1.28l.33-.06a1.55,1.55,0,0,0,.79-.46l.06-.05h0a1.67,1.67,0,0,0,.37-1.51l-1-4-1.27-5L144,123l1.23,4.91a1.68,1.68,0,0,0,2,1.23,1.66,1.66,0,0,0,1.23-2v0l-.42-1.67,1.42.84a1.68,1.68,0,1,0,1.73-2.87l-1.42-.85,1.68-.42a1.52,1.52,0,0,0,.83-.5,1.64,1.64,0,0,0,.43-1.19,2.09,2.09,0,0,0,0-.35,1.69,1.69,0,0,0-1.7-1.26,1.88,1.88,0,0,0-.33,0l-4.93,1.24-6.34-3.8,9-2.27a1.66,1.66,0,0,0,1.22-2h0a1.1,1.1,0,0,0-.11-.32,1.65,1.65,0,0,0-1.1-.9,1.55,1.55,0,0,0-.8,0l-12.29,3.07-7.76-4.66,17-4.23a1.79,1.79,0,0,0,.84-.51,1.67,1.67,0,0,0-1.31-2.79,1.27,1.27,0,0,0-.34,0l-20.21,5.06-16.31-9.76,16.19-7.65,1.46,2.67,2.33,4.29a1.83,1.83,0,0,0,.42.5,1.68,1.68,0,0,0,2.53-2.08l0,0-2.93-5.41,5.27.12,2.16,3.94a1.46,1.46,0,0,0,.21.28,1.66,1.66,0,0,0,2.73-1.88l-1.21-2.23,7,.17a1.7,1.7,0,0,0,.81-.2,1.65,1.65,0,0,0,.9-1.43,1.58,1.58,0,0,0,0-.38,1.73,1.73,0,0,0,.05-.38,1.68,1.68,0,0,0-1.66-1.7l-7.06-.06,1.29-2.2a1.63,1.63,0,0,0-.15-1.89,1.27,1.27,0,0,0-.43-.4,1.67,1.67,0,0,0-2.3.59h0l-1.63,2.76-.65,1.1-3.86,0-1.44,0,2.41-4.09.71-1.22a1,1,0,0,0,.13-.27l0,0a2.25,2.25,0,0,1,.05-.22,1.65,1.65,0,0,0-.62-1.62.49.49,0,0,0-.18-.14,1.65,1.65,0,0,0-2.27.56l0,0-4,6.83-6.06-3.11-9.87-5.07,16.62-9.23,20,5.74a1.61,1.61,0,0,0,1.12-.1,1.66,1.66,0,0,0,1-1.07.08.08,0,0,0,0-.07,1.65,1.65,0,0,0-.34-1.46,1.29,1.29,0,0,0-.3-.27,1.81,1.81,0,0,0-.52-.26l-6.63-1.9-10.19-2.91,7.91-4.4L142.27,63l6.07,1.73a1.61,1.61,0,0,0,1.44-.25,1.59,1.59,0,0,0,.64-.9,1.2,1.2,0,0,0,.05-.33s0,0,0,0a1.64,1.64,0,0,0-1.21-1.67l-5.53-1.58-3.4-1,6.46-3.58,4.88,1.39a1.69,1.69,0,0,0,2.06-2.11,1.67,1.67,0,0,0-.74-.93,1.44,1.44,0,0,0-.4-.18l-1.67-.47,1.45-.81A1.65,1.65,0,0,0,153,50v0a1.68,1.68,0,0,0-2.27-.66h0l-1.45.8.49-1.66a2,2,0,0,0,.05-.34,1.66,1.66,0,0,0-.35-1.15,1.57,1.57,0,0,0-.86-.58,1.82,1.82,0,0,0-.7,0,1.67,1.67,0,0,0-1.24.88,1.75,1.75,0,0,0-.12.32l-1.4,4.88L138.71,56l2.14-7.51.41-1.43a1.91,1.91,0,0,0,.06-.33A1.67,1.67,0,0,0,138.1,46a.38.38,0,0,0-.06.13l-3.49,12.18-7.9,4.39,4.79-16.82c0-.11.05-.22.07-.33a1.67,1.67,0,0,0-3-1.18,1.48,1.48,0,0,0-.3.6l-.76,2.67L122.5,65l-16.6,9.24,1.47-17.84,3.73.08,4.19.11a1.41,1.41,0,0,0,.61-.11h0l0,0A1.66,1.66,0,0,0,117,55v0s0,0,0,0a1.67,1.67,0,0,0-1.62-1.66l-2.24-.06-3.92-.1L112,48.57l4.48.11a1.69,1.69,0,0,0,1.19-.46,1.65,1.65,0,0,0,.52-1.18.57.57,0,0,0,0-.13.82.82,0,0,0,0-.22,1.69,1.69,0,0,0-1.6-1.37l-2.54,0,3.68-6c0-.09.1-.2.14-.29a1.68,1.68,0,0,0-.71-2l-.14-.07-.2-.09-.29-.23a1.67,1.67,0,0,0-2.29.59h0l-3.59,6.07L109.32,41a1.67,1.67,0,0,0-2.28-.63,1.69,1.69,0,0,0-.64,2.28l1,1.85,1.15,2-1.38,2.37L105.9,51.1l-.46-.83-2.58-4.52-.07-.12c0-.05-.08-.1-.11-.16a1.85,1.85,0,0,1-.14-.14l-.11-.08s0,0-.05,0a1.65,1.65,0,0,0-.83-.31h-.33a1.45,1.45,0,0,0-.5.15l-.14.06a1.63,1.63,0,0,0-.83,1.45,1.56,1.56,0,0,0,.2.82l3.92,6.89-6.12,3.94L88.83,64l.28-19,15-14.49a1.64,1.64,0,0,0,.51-1.16v0a1.7,1.7,0,0,0-1.73-1.66,1.6,1.6,0,0,0-.53.09l-.13.06a1.67,1.67,0,0,0-.44.31L95.5,34.18l-6.28,6.08.16-9,4.53-4.4,4.54-4.39A1.68,1.68,0,0,0,96.13,20h0l-4,3.88-2.68,2.59.11-7.4,3.67-3.52a1.69,1.69,0,0,0,.5-1.18,1.27,1.27,0,0,0,0-.2,1.53,1.53,0,0,0-.46-1,1.62,1.62,0,0,0-.47-.34,1.74,1.74,0,0,0-1.1-.13,1.7,1.7,0,0,0-.79.43l-1.25,1.21,0-1.66a1.83,1.83,0,0,0-.11-.61,1.77,1.77,0,0,0-.71-.86,1.73,1.73,0,0,0-1.55-.08,1.67,1.67,0,0,0-1,1.5l0,1.65-1.21-1.25a1.38,1.38,0,0,0-.26-.22l-.06,0a1,1,0,0,0-.21-.1,1.67,1.67,0,0,0-2.29,1.14,1.49,1.49,0,0,0-.05.36,1.64,1.64,0,0,0,.48,1.2L86.21,19l-.12,7.39-6.46-6.67a1.68,1.68,0,0,0-2.77,1.77,2,2,0,0,0,.35.55L86,31.16l-.14,9.06L73.7,27.64a1.69,1.69,0,0,0-2.38-.05,1.73,1.73,0,0,0-.47,1.5,2,2,0,0,0,.27.65,1.24,1.24,0,0,0,.18.22l14.5,15-.32,19L70.76,53.74l1.37-2.25L74.89,47a1.57,1.57,0,0,0,.23-.78,1.65,1.65,0,0,0-.79-1.51,1.77,1.77,0,0,0-.31-.15,1.66,1.66,0,0,0-1.84.5c-.05.07-.11.13-.15.2l-.55.9-2.66,4.37-2.55-4.67L68.61,42a1.56,1.56,0,0,0,.2-.56.15.15,0,0,0,0-.07,1.71,1.71,0,0,0-.79-1.68,1.69,1.69,0,0,0-.62-.21,1.65,1.65,0,0,0-1.68.78l-1.31,2.16L61,36.26a1.07,1.07,0,0,0-.19-.28,1.68,1.68,0,0,0-1.7-.53,1.31,1.31,0,0,0-.37.15.84.84,0,0,0-.31.22h0a1.23,1.23,0,0,0-.31.14,1.68,1.68,0,0,0-.63,2.29h0L61,44.39l-2.54,0a1.66,1.66,0,0,0-1.4.72,1.71,1.71,0,0,0-.3.93,1.69,1.69,0,0,0,1.66,1.69l4.49,0,.08.16,2.52,4.45-1.67,0-4.49,0a1.72,1.72,0,0,0-1.66,1.33,1.83,1.83,0,0,0,0,.33,1.64,1.64,0,0,0,1.6,1.69h.05l7.92.07.51,10.09.37,7.8-16.3-9.78L46.7,43.61a1.65,1.65,0,0,0-1.35-1.23,1.68,1.68,0,0,0-.67,0,1.64,1.64,0,0,0-1.13,1,1.61,1.61,0,0,0-.08,1l4.24,17L40,56.74,36.88,44.47a2,2,0,0,0-.11-.32,1.67,1.67,0,0,0-3.18.8,1.27,1.27,0,0,0,0,.34l2.27,9-6.34-3.81L28.32,45.6a1.69,1.69,0,0,0-2-1.23,1.67,1.67,0,0,0-1.22,2l.43,1.67-1.42-.85a1.47,1.47,0,0,0-.64-.21l-.31,0-.08,0a1.32,1.32,0,0,0-.55.14l-.16.1-.13.07a1.48,1.48,0,0,0-.44.49,1.65,1.65,0,0,0,.09,1.85,1.55,1.55,0,0,0,.49.43l1.42.86-1.68.42a2.19,2.19,0,0,0-.33.12,1.65,1.65,0,0,0-.88,1.91.76.76,0,0,0,.11.32,1.67,1.67,0,0,0,1.91.9l4.94-1.23,6.33,3.8-9,2.26a1.68,1.68,0,0,0-1.22,2,1.76,1.76,0,0,0,.29.6A1.7,1.7,0,0,0,26,62.7l12.28-3.07L46,64.28,29,68.53a1.67,1.67,0,0,0-1.24,1.31s0,0,0,0a1.53,1.53,0,0,0,.05.67s0,.1.05.16a1.66,1.66,0,0,0,2,1.06l20.22-5.06,16.3,9.77-16.2,7.64-3.78-7a1.67,1.67,0,0,0-1.95-.8,1.83,1.83,0,0,0-.32.14,1.66,1.66,0,0,0-.66,2.26h0l3,5.41-5.3-.13-2.15-3.92a1.69,1.69,0,0,0-2.28-.66,1.57,1.57,0,0,0-.5.43A1.67,1.67,0,0,0,36,81.74L37.22,84l-7.06-.17a1.68,1.68,0,0,0-1.7,1.57s0,0,0,.06a1.5,1.5,0,0,0,0,.37,1.74,1.74,0,0,0,0,.39,1.68,1.68,0,0,0,1.65,1.69l7.06.06-1.3,2.19a1.68,1.68,0,0,0,.07,1.78,1.55,1.55,0,0,0,.53.52,1.67,1.67,0,0,0,2.29-.59h0L41,88l5.3,0-1,1.61-2.18,3.7a1.66,1.66,0,0,0,.32,2.08,1.18,1.18,0,0,0,.28.22,1.66,1.66,0,0,0,2.27-.57l0,0,4-6.83L59.45,93,66,96.39l-16.62,9.23-20-5.74A1.66,1.66,0,0,0,27.32,101V101a1.71,1.71,0,0,0,1.15,2.07l16.81,4.8-7.91,4.4-12.17-3.48a1.64,1.64,0,0,0-2,1.11v0a.93.93,0,0,0-.07.33.06.06,0,0,0,0,.06,1.13,1.13,0,0,0,0,.26v0a1.71,1.71,0,0,0,.37.85,1.55,1.55,0,0,0,.82.53l9,2.56-6.46,3.6-4.88-1.4a1.7,1.7,0,0,0-1.27.14m49.58-2.52,1.26-17.23,13.6-7.54-.26,15.54L76,110.74Zm.92-55.83,14.3,9.7-.26,15.56-13.34-8-.37-8.92ZM91.33,82.31,88.49,83.9l.27-15.56,4.94-3.12,9.67-6.1-.75,10.13-.53,7.09Zm18.7.27,9,4.72-15.54,7.53-13.35-8,13.6-7.57Zm-7.81,26.87.22,5.5-10.81-7.33-3.49-2.36L88.4,89.7l13.34,8Zm-41.4-19.9-6.28-3.31,15.54-7.52,13.35,8L69.82,94.27Z" transform="translate(-19.49 -10.76)"/><path id="パス_388" data-name="パス 388" class="cls-10" d="M20.62,116.94a1.62,1.62,0,0,0-.81,1A1.68,1.68,0,0,0,21,120h0l1.67.47-1.45.81-.28.18a1.76,1.76,0,0,0-.57,1.14,1.65,1.65,0,0,0,.2.95,1.62,1.62,0,0,0,1.32.85,1.54,1.54,0,0,0,1-.2l1.44-.8-.47,1.65c0,.12-.05.23-.07.34a1.72,1.72,0,0,0,1.22,1.75l.32,0A1.68,1.68,0,0,0,27,126l1.4-4.88,6.45-3.6-2.55,9a1.67,1.67,0,0,0,1.15,2.08h0a1,1,0,0,0,.33.06,1.67,1.67,0,0,0,1.74-1.21L39,115.23l7.91-4.39-4.8,16.82a1.68,1.68,0,0,0,1.15,2.06,1.57,1.57,0,0,0,1.27-.15,1.64,1.64,0,0,0,.8-1l5.72-20,16.62-9.23-1.48,17.85L58.26,117a1.68,1.68,0,0,0-1.72,1.64,1.7,1.7,0,0,0,.26,1,.63.63,0,0,1,.1.12l.11.12.05,0a1.58,1.58,0,0,0,1.12.47l6.15.16L61.58,125l-4.48-.1a1.68,1.68,0,0,0-.08,3.35l2.55.07-3.68,6a1.67,1.67,0,0,0,.55,2.29h0a1.39,1.39,0,0,0,.35.16,1.33,1.33,0,0,0,.3.23,1.67,1.67,0,0,0,2.29-.59L63,130.33l1.25,2.22a1.68,1.68,0,0,0,1.68.83,1.72,1.72,0,0,0,.59-.2,1.68,1.68,0,0,0,.8-1v0a2.61,2.61,0,0,0,.06-.27,0,0,0,0,1,0,0,1.75,1.75,0,0,0-.2-.92l-1-1.73L64.94,127l2.69-4.55.58,1,2.46,4.35a1.66,1.66,0,0,0,2.25.64l0,0a1.67,1.67,0,0,0,.64-2.27l-3.91-6.9,15-9.7-.31,19-15,14.5a1.67,1.67,0,0,0-.24,2.1,1.57,1.57,0,0,0,.2.25,1.65,1.65,0,0,0,1.81.4,1.33,1.33,0,0,0,.55-.35l12.58-12.16-.15,9.05-9.09,8.78a1.68,1.68,0,0,0,2.28,2.47l0-.06,6.69-6.47-.13,7.4L80.33,158a1.7,1.7,0,0,0-.49,1,1.68,1.68,0,0,0,2.81,1.42h0l1.25-1.21,0,1.65a1,1,0,0,0,0,.34,1.48,1.48,0,0,0,.22.55,1.65,1.65,0,0,0,1.4.8,1.68,1.68,0,0,0,1.66-1.3,1.87,1.87,0,0,0,0-.34l0-1.66,1.2,1.25a1.69,1.69,0,0,0,2.38,0,1.65,1.65,0,0,0,.5-1.18,1.69,1.69,0,0,0-.46-1.19l-3.55-3.66.12-7.37,6.48,6.69a1.67,1.67,0,0,0,2.35.05h0a2.85,2.85,0,0,0,.23-.26,1.67,1.67,0,0,0-.2-2.11l-8.79-9.08.15-9.06L99.84,145.9a1.67,1.67,0,1,0,2.48-2.24.6.6,0,0,0-.08-.08l-14.49-15,.31-19,14.73,10.2-1.23,2-2.91,4.75a1.86,1.86,0,0,0-.21,1.18.3.3,0,0,1,0,.1l0,.07a2.17,2.17,0,0,0,.07.24,1.8,1.8,0,0,1,.11.2.56.56,0,0,1,0,.08,1.91,1.91,0,0,0,.49.45,1.69,1.69,0,0,0,1,.24,1.73,1.73,0,0,0,.32,0,1.75,1.75,0,0,0,1-.77l3.21-5.25,2.54,4.65-2.34,3.81c-.05.11-.1.22-.14.33a1.67,1.67,0,0,0-.05.94,1.71,1.71,0,0,0,.75,1,1.69,1.69,0,0,0,2.31-.56l1.32-2.17,3.38,6.2.2.28a1.66,1.66,0,0,0,2.08.37,1.29,1.29,0,0,0,.3-.22,1.17,1.17,0,0,0,.35-.14,1.67,1.67,0,0,0,.65-2.26h0l-3.48-6.15,2.55,0a1.68,1.68,0,0,0,1.65-1.33,1.75,1.75,0,0,0,0-.33,1.69,1.69,0,0,0-1.65-1.7l-3.43,0-1.06,0-2.54-4.47-.06-.12,6.16,0,.18,0h.15l.14,0a.48.48,0,0,0,.18-.06h0a1.68,1.68,0,0,0,0-3.07,1.76,1.76,0,0,0-.64-.15l-7.93-.05L106,111l-.55-11,16.31,9.77,5,20.22a1.68,1.68,0,0,0,1.69,1.27l.35,0a1.66,1.66,0,0,0,.9-.61,1.63,1.63,0,0,0,.31-1.43l-4.24-17,7.76,4.67,3.06,12.26a1.69,1.69,0,0,0,1.7,1.28l.33-.06a1.55,1.55,0,0,0,.79-.46l.06-.05h0a1.67,1.67,0,0,0,.37-1.51l-1-4-1.27-5L144,123l1.23,4.91a1.68,1.68,0,0,0,2,1.23,1.66,1.66,0,0,0,1.23-2v0l-.42-1.67,1.42.84a1.68,1.68,0,1,0,1.73-2.87l-1.42-.85,1.68-.42a1.52,1.52,0,0,0,.83-.5,1.64,1.64,0,0,0,.43-1.19,2.09,2.09,0,0,0,0-.35,1.69,1.69,0,0,0-1.7-1.26,1.88,1.88,0,0,0-.33,0l-4.93,1.24-6.34-3.8,9-2.27a1.66,1.66,0,0,0,1.22-2h0a1.1,1.1,0,0,0-.11-.32,1.65,1.65,0,0,0-1.1-.9,1.55,1.55,0,0,0-.8,0l-12.29,3.07-7.76-4.66,17-4.23a1.79,1.79,0,0,0,.84-.51,1.67,1.67,0,0,0-1.31-2.79,1.27,1.27,0,0,0-.34,0l-20.21,5.06-16.31-9.76,16.19-7.65,1.46,2.67,2.33,4.29a1.83,1.83,0,0,0,.42.5,1.68,1.68,0,0,0,2.53-2.08l0,0-2.93-5.41,5.27.12,2.16,3.94a1.46,1.46,0,0,0,.21.28,1.66,1.66,0,0,0,2.73-1.88l-1.21-2.23,7,.17a1.7,1.7,0,0,0,.81-.2,1.65,1.65,0,0,0,.9-1.43,1.58,1.58,0,0,0,0-.38,1.73,1.73,0,0,0,.05-.38,1.68,1.68,0,0,0-1.66-1.7l-7.06-.06,1.29-2.2a1.63,1.63,0,0,0-.15-1.89,1.27,1.27,0,0,0-.43-.4,1.67,1.67,0,0,0-2.3.59h0l-1.63,2.76-.65,1.1-3.86,0-1.44,0,2.41-4.09.71-1.22a1,1,0,0,0,.13-.27l0,0a2.25,2.25,0,0,1,.05-.22,1.65,1.65,0,0,0-.62-1.62.49.49,0,0,0-.18-.14,1.65,1.65,0,0,0-2.27.56l0,0-4,6.83-6.06-3.11-9.87-5.07,16.62-9.23,20,5.74a1.61,1.61,0,0,0,1.12-.1,1.66,1.66,0,0,0,1-1.07.08.08,0,0,0,0-.07,1.65,1.65,0,0,0-.34-1.46,1.29,1.29,0,0,0-.3-.27,1.81,1.81,0,0,0-.52-.26l-6.63-1.9-10.19-2.91,7.91-4.4L142.27,63l6.07,1.73a1.61,1.61,0,0,0,1.44-.25,1.59,1.59,0,0,0,.64-.9,1.2,1.2,0,0,0,.05-.33s0,0,0,0a1.64,1.64,0,0,0-1.21-1.67l-5.53-1.58-3.4-1,6.46-3.58,4.88,1.39a1.69,1.69,0,0,0,2.06-2.11,1.67,1.67,0,0,0-.74-.93,1.44,1.44,0,0,0-.4-.18l-1.67-.47,1.45-.81A1.65,1.65,0,0,0,153,50v0a1.68,1.68,0,0,0-2.27-.66h0l-1.45.8.49-1.66a2,2,0,0,0,.05-.34,1.66,1.66,0,0,0-.35-1.15,1.57,1.57,0,0,0-.86-.58,1.82,1.82,0,0,0-.7,0,1.67,1.67,0,0,0-1.24.88,1.75,1.75,0,0,0-.12.32l-1.4,4.88L138.71,56l2.14-7.51.41-1.43a1.91,1.91,0,0,0,.06-.33A1.67,1.67,0,0,0,138.1,46a.38.38,0,0,0-.06.13l-3.49,12.18-7.9,4.39,4.79-16.82c0-.11.05-.22.07-.33a1.67,1.67,0,0,0-3-1.18,1.48,1.48,0,0,0-.3.6l-.76,2.67L122.5,65l-16.6,9.24,1.47-17.84,3.73.08,4.19.11a1.41,1.41,0,0,0,.61-.11h0l0,0A1.66,1.66,0,0,0,117,55v0s0,0,0,0a1.67,1.67,0,0,0-1.62-1.66l-2.24-.06-3.92-.1L112,48.57l4.48.11a1.69,1.69,0,0,0,1.19-.46,1.65,1.65,0,0,0,.52-1.18.57.57,0,0,0,0-.13.82.82,0,0,0,0-.22,1.69,1.69,0,0,0-1.6-1.37l-2.54,0,3.68-6c0-.09.1-.2.14-.29a1.68,1.68,0,0,0-.71-2l-.14-.07-.2-.09-.29-.23a1.67,1.67,0,0,0-2.29.59h0l-3.59,6.07L109.32,41a1.67,1.67,0,0,0-2.28-.63,1.69,1.69,0,0,0-.64,2.28l1,1.85,1.15,2-1.38,2.37L105.9,51.1l-.46-.83-2.58-4.52-.07-.12c0-.05-.08-.1-.11-.16a1.85,1.85,0,0,1-.14-.14l-.11-.08s0,0-.05,0a1.65,1.65,0,0,0-.83-.31h-.33a1.45,1.45,0,0,0-.5.15l-.14.06a1.63,1.63,0,0,0-.83,1.45,1.56,1.56,0,0,0,.2.82l3.92,6.89-6.12,3.94L88.83,64l.28-19,15-14.49a1.64,1.64,0,0,0,.51-1.16v0a1.7,1.7,0,0,0-1.73-1.66,1.6,1.6,0,0,0-.53.09l-.13.06a1.67,1.67,0,0,0-.44.31L95.5,34.18l-6.28,6.08.16-9,4.53-4.4,4.54-4.39A1.68,1.68,0,0,0,96.13,20h0l-4,3.88-2.68,2.59.11-7.4,3.67-3.52a1.69,1.69,0,0,0,.5-1.18,1.27,1.27,0,0,0,0-.2,1.53,1.53,0,0,0-.46-1,1.62,1.62,0,0,0-.47-.34,1.74,1.74,0,0,0-1.1-.13,1.7,1.7,0,0,0-.79.43l-1.25,1.21,0-1.66a1.83,1.83,0,0,0-.11-.61,1.77,1.77,0,0,0-.71-.86,1.73,1.73,0,0,0-1.55-.08,1.67,1.67,0,0,0-1,1.5l0,1.65-1.21-1.25a1.38,1.38,0,0,0-.26-.22l-.06,0a1,1,0,0,0-.21-.1,1.67,1.67,0,0,0-2.29,1.14,1.49,1.49,0,0,0-.05.36,1.64,1.64,0,0,0,.48,1.2L86.21,19l-.12,7.39-6.46-6.67a1.68,1.68,0,0,0-2.77,1.77,2,2,0,0,0,.35.55L86,31.16l-.14,9.06L73.7,27.64a1.69,1.69,0,0,0-2.38-.05,1.73,1.73,0,0,0-.47,1.5,2,2,0,0,0,.27.65,1.24,1.24,0,0,0,.18.22l14.5,15-.32,19L70.76,53.74l1.37-2.25L74.89,47a1.57,1.57,0,0,0,.23-.78,1.65,1.65,0,0,0-.79-1.51,1.77,1.77,0,0,0-.31-.15,1.66,1.66,0,0,0-1.84.5c-.05.07-.11.13-.15.2l-.55.9-2.66,4.37-2.55-4.67L68.61,42a1.56,1.56,0,0,0,.2-.56.15.15,0,0,0,0-.07,1.71,1.71,0,0,0-.79-1.68,1.69,1.69,0,0,0-.62-.21,1.65,1.65,0,0,0-1.68.78l-1.31,2.16L61,36.26a1.07,1.07,0,0,0-.19-.28,1.68,1.68,0,0,0-1.7-.53,1.31,1.31,0,0,0-.37.15.84.84,0,0,0-.31.22h0a1.23,1.23,0,0,0-.31.14,1.68,1.68,0,0,0-.63,2.29h0L61,44.39l-2.54,0a1.66,1.66,0,0,0-1.4.72,1.71,1.71,0,0,0-.3.93,1.69,1.69,0,0,0,1.66,1.69l4.49,0,.08.16,2.52,4.45-1.67,0-4.49,0a1.72,1.72,0,0,0-1.66,1.33,1.83,1.83,0,0,0,0,.33,1.64,1.64,0,0,0,1.6,1.69h.05l7.92.07.51,10.09.37,7.8-16.3-9.78L46.7,43.61a1.65,1.65,0,0,0-1.35-1.23,1.68,1.68,0,0,0-.67,0,1.64,1.64,0,0,0-1.13,1,1.61,1.61,0,0,0-.08,1l4.24,17L40,56.74,36.88,44.47a2,2,0,0,0-.11-.32,1.67,1.67,0,0,0-3.18.8,1.27,1.27,0,0,0,0,.34l2.27,9-6.34-3.81L28.32,45.6a1.69,1.69,0,0,0-2-1.23,1.67,1.67,0,0,0-1.22,2l.43,1.67-1.42-.85a1.47,1.47,0,0,0-.64-.21l-.31,0-.08,0a1.32,1.32,0,0,0-.55.14l-.16.1-.13.07a1.48,1.48,0,0,0-.44.49,1.65,1.65,0,0,0,.09,1.85,1.55,1.55,0,0,0,.49.43l1.42.86-1.68.42a2.19,2.19,0,0,0-.33.12,1.65,1.65,0,0,0-.88,1.91.76.76,0,0,0,.11.32,1.67,1.67,0,0,0,1.91.9l4.94-1.23,6.33,3.8-9,2.26a1.68,1.68,0,0,0-1.22,2,1.76,1.76,0,0,0,.29.6A1.7,1.7,0,0,0,26,62.7l12.28-3.07L46,64.28,29,68.53a1.67,1.67,0,0,0-1.24,1.31s0,0,0,0a1.53,1.53,0,0,0,.05.67s0,.1.05.16a1.66,1.66,0,0,0,2,1.06l20.22-5.06,16.3,9.77-16.2,7.64-3.78-7a1.67,1.67,0,0,0-1.95-.8,1.83,1.83,0,0,0-.32.14,1.66,1.66,0,0,0-.66,2.26h0l3,5.41-5.3-.13-2.15-3.92a1.69,1.69,0,0,0-2.28-.66,1.57,1.57,0,0,0-.5.43A1.67,1.67,0,0,0,36,81.74L37.22,84l-7.06-.17a1.68,1.68,0,0,0-1.7,1.57s0,0,0,.06a1.5,1.5,0,0,0,0,.37,1.74,1.74,0,0,0,0,.39,1.68,1.68,0,0,0,1.65,1.69l7.06.06-1.3,2.19a1.68,1.68,0,0,0,.07,1.78,1.55,1.55,0,0,0,.53.52,1.67,1.67,0,0,0,2.29-.59h0L41,88l5.3,0-1,1.61-2.18,3.7a1.66,1.66,0,0,0,.32,2.08,1.18,1.18,0,0,0,.28.22,1.66,1.66,0,0,0,2.27-.57l0,0,4-6.83L59.45,93,66,96.39l-16.62,9.23-20-5.74A1.66,1.66,0,0,0,27.32,101V101a1.71,1.71,0,0,0,1.15,2.07l16.81,4.8-7.91,4.4-12.17-3.48a1.64,1.64,0,0,0-2,1.11v0a.93.93,0,0,0-.07.33.06.06,0,0,0,0,.06,1.13,1.13,0,0,0,0,.26v0a1.71,1.71,0,0,0,.37.85,1.55,1.55,0,0,0,.82.53l9,2.56-6.46,3.6-4.88-1.4a1.7,1.7,0,0,0-1.27.14m49.58-2.52,1.26-17.23,13.6-7.54-.26,15.54L76,110.74Zm.92-55.83,14.3,9.7-.26,15.56-13.34-8-.37-8.92ZM91.33,82.31,88.49,83.9l.27-15.56,4.94-3.12,9.67-6.1-.75,10.13-.53,7.09Zm18.7.27,9,4.72-15.54,7.53-13.35-8,13.6-7.57Zm-7.81,26.87.22,5.5-10.81-7.33-3.49-2.36L88.4,89.7l13.34,8Zm-41.4-19.9-6.28-3.31,15.54-7.52,13.35,8L69.82,94.27Z" transform="translate(-19.49 -10.76)"/></g></g></g></g></g></g></svg>