<svg xmlns="http://www.w3.org/2000/svg" width="163.386" height="46.854" viewBox="0 0 163.386 46.854">
  <g id="グループ_23" data-name="グループ 23" transform="translate(-256.522 -378.167)">
    <g id="グループ_14" data-name="グループ 14" transform="translate(329.469 378.167)">
      <path id="パス_321" data-name="パス 321" d="M431.676,468.983a.42.42,0,0,0-.45.307q-.687,2.577-.687,2.624c0,.142.1.213.308.213h5.823a.8.8,0,0,1,.592.214l.616.642a.232.232,0,0,1,.047.119c0,.064-.071.1-.213.1H425.308q-.308,0-.308-.237v-.071l1.326-4.954a2.626,2.626,0,0,1,1.16-1.494,3.592,3.592,0,0,1,2.036-.616H434.4a.4.4,0,0,0,.45-.307q.71-2.578.711-2.624c0-.142-.1-.213-.308-.213H429.4a.77.77,0,0,1-.568-.211l-.616-.634a.192.192,0,0,1-.071-.117q0-.095.237-.094h10.133a2.438,2.438,0,0,1,1.527.462,1.436,1.436,0,0,1,.6,1.195,2.081,2.081,0,0,1-.047.449l-.852,3.147a2.506,2.506,0,0,1-1.149,1.491,3.608,3.608,0,0,1-2.024.615Z" transform="translate(-396.911 -426.343)" fill="#b6362b"/>
      <path id="パス_322" data-name="パス 322" d="M475.291,462.087a1.438,1.438,0,0,1,.6,1.2,2.057,2.057,0,0,1-.047.449l-1.965,7.36a2.624,2.624,0,0,1-1.16,1.491,3.593,3.593,0,0,1-2.036.615H462.8a2.438,2.438,0,0,1-1.527-.462,1.435,1.435,0,0,1-.6-1.2,1.4,1.4,0,0,1,.071-.45l1.941-7.36a2.623,2.623,0,0,1,1.16-1.491,3.593,3.593,0,0,1,2.036-.615h7.883A2.442,2.442,0,0,1,475.291,462.087Zm-7.327,10.046c.253,0,.4-.095.45-.284l1.539-5.729V466a.216.216,0,0,0-.118.118l-3.93,5.752a.234.234,0,0,0-.048.119c0,.095.079.142.237.142Zm.194-9.161-1.512,5.73a.081.081,0,0,0-.032.07.068.068,0,0,0,.024.047.227.227,0,0,0,.095-.119l4.119-6.037h-2.245A.4.4,0,0,0,468.158,462.971Z" transform="translate(-417.503 -426.343)" fill="#b6362b"/>
      <path id="パス_323" data-name="パス 323" d="M500.131,468.983a.42.42,0,0,0-.45.307q-.687,2.577-.687,2.624,0,.213.307.213h5.824a.8.8,0,0,1,.592.214l.615.642a.232.232,0,0,1,.047.119c0,.064-.071.1-.213.1h-12.4q-.308,0-.308-.237v-.071l1.326-4.954a2.625,2.625,0,0,1,1.16-1.494,3.59,3.59,0,0,1,2.036-.616h4.877a.4.4,0,0,0,.45-.307q.709-2.578.71-2.624,0-.213-.308-.213h-5.847a.77.77,0,0,1-.568-.211l-.615-.634a.19.19,0,0,1-.071-.117c0-.063.079-.094.237-.094h10.132a2.436,2.436,0,0,1,1.527.462,1.436,1.436,0,0,1,.6,1.195,2.058,2.058,0,0,1-.048.449l-.852,3.147a2.5,2.5,0,0,1-1.149,1.491,3.608,3.608,0,0,1-2.024.615Z" transform="translate(-436.427 -426.343)" fill="#b6362b"/>
      <path id="パス_324" data-name="パス 324" d="M541.746,462.087a1.438,1.438,0,0,1,.6,1.2,2.056,2.056,0,0,1-.047.449l-1.965,7.36a2.624,2.624,0,0,1-1.16,1.491,3.593,3.593,0,0,1-2.036.615h-7.883a2.439,2.439,0,0,1-1.527-.462,1.435,1.435,0,0,1-.6-1.2,1.415,1.415,0,0,1,.071-.45l1.941-7.36a2.623,2.623,0,0,1,1.16-1.491,3.593,3.593,0,0,1,2.036-.615h7.883A2.442,2.442,0,0,1,541.746,462.087Zm-7.327,10.046c.253,0,.4-.095.45-.284l1.539-5.729V466a.216.216,0,0,0-.118.118l-3.93,5.752a.233.233,0,0,0-.047.119q0,.142.237.142Zm.194-9.161L533.1,468.7a.081.081,0,0,0-.031.07.067.067,0,0,0,.023.047.225.225,0,0,0,.095-.119l4.119-6.037h-2.245A.4.4,0,0,0,534.613,462.971Z" transform="translate(-455.864 -426.343)" fill="#b6362b"/>
      <path id="パス_325" data-name="パス 325" d="M358.556,378.427v31.352h5.11V389.238l7.273,20.639h4.226l7.371-20.639v20.639h5.013V378.525h-6.29l-8.322,23.828-8.051-23.944Z" transform="translate(-358.556 -378.307)" fill="#b6362b"/>
      <rect id="長方形_4" data-name="長方形 4" width="5.175" height="31.497" transform="translate(35.036 0.089)" fill="#b6362b"/>
      <path id="パス_326" data-name="パス 326" d="M473.113,388.339v21.147h-5.086V378.167H474.1l8.922,20.343V378.256h5.175v31.318h-5.354Z" transform="translate(-421.749 -378.167)" fill="#b6362b"/>
      <path id="パス_327" data-name="パス 327" d="M530.641,378.536h17v5.013h-11.7v7.862h8.747v4.914h-8.747v9.239h12.383v4.521H530.739Z" transform="translate(-457.892 -378.38)" fill="#b6362b"/>
    </g>
    <path id="前面オブジェクトで型抜き_3" data-name="前面オブジェクトで型抜き 3" d="M74.947,46.806H70.426c-.252,0-.411-.087-.474-.26l-3.006-7.384a.146.146,0,0,0-.095-.094c-.032,0-.063.047-.1.142l-1.87,7.313a.42.42,0,0,1-.449.283H62.542c-.2,0-.308-.072-.308-.213v-.07l2.651-9.94v-.118a1.027,1.027,0,0,0-.4-.663c-.267-.251-.4-.4-.4-.45,0-.078.072-.118.213-.118h5.824a.491.491,0,0,1,.5.26L73.6,42.879a.225.225,0,0,0,.094.118c.048,0,.08-.048.1-.142l1.894-7.314a.4.4,0,0,1,.45-.308h1.894c.2,0,.308.08.308.237a.183.183,0,0,1-.024.071L75.4,46.522C75.349,46.713,75.2,46.806,74.947,46.806Zm-14.144,0H54.956c-.236,0-.379-.087-.426-.26l-.4-1.56A.382.382,0,0,0,53.7,44.7h-4.19a.7.7,0,0,0-.592.284l-1.113,1.537a.641.641,0,0,1-.569.283h-1.87c-.159,0-.236-.046-.236-.142,0-.031,2.39-3.37,6.913-9.655a.806.806,0,0,0,.142-.45,2.053,2.053,0,0,0-.107-.52,2.058,2.058,0,0,1-.107-.521c0-.157.1-.237.308-.237l5.918-.047c.251,0,.4.1.45.284l2.462,11.029v.047C61.112,46.734,61.008,46.806,60.8,46.806ZM52.849,39.47a.2.2,0,0,0-.166.118l-2.6,3.788a.368.368,0,0,0-.047.142c0,.094.072.142.213.142h3.244c.189,0,.284-.08.284-.237l-.829-3.835C52.928,39.509,52.9,39.47,52.849,39.47ZM36.138,46.806H31.615c-.2,0-.308-.072-.308-.213v-.07l2.652-9.94a.265.265,0,0,0,.024-.118,1.023,1.023,0,0,0-.414-.663c-.279-.255-.414-.4-.414-.45,0-.078.072-.118.213-.118H44.825a2.409,2.409,0,0,1,1.527.474,1.476,1.476,0,0,1,.6,1.207,1.99,1.99,0,0,1-.047.426L45.8,41.554a2.625,2.625,0,0,1-1.171,1.491,3.626,3.626,0,0,1-2.024.615H37.7a.421.421,0,0,0-.45.284l-.663,2.581A.421.421,0,0,1,36.138,46.806Zm3.528-10.5c-.251,0-.4.094-.449.279L37.7,42.312a.219.219,0,0,1-.019.072.192.192,0,0,0,.077.166.394.394,0,0,0,.23.056h1.888c.25,0,.4-.1.449-.294l1.515-5.723a.1.1,0,0,0,.024-.071c0-.141-.1-.213-.307-.213Zm-9.791,10.5H24.028c-.235,0-.379-.087-.426-.26l-.4-1.56a.382.382,0,0,0-.426-.284h-4.19a.7.7,0,0,0-.592.284l-1.113,1.537a.64.64,0,0,1-.568.283H14.44c-.157,0-.237-.048-.237-.142,0-.031,2.261-3.189,6.913-9.655a.8.8,0,0,0,.142-.45,2.052,2.052,0,0,0-.107-.52,2.058,2.058,0,0,1-.107-.521c0-.157.1-.237.308-.237l5.919-.047c.251,0,.4.1.45.284l2.462,11.029v.047C30.184,46.734,30.08,46.806,29.876,46.806ZM21.921,39.47a.2.2,0,0,0-.166.118l-2.6,3.788a.368.368,0,0,0-.047.142c0,.094.072.142.213.142H22.56c.189,0,.284-.08.284-.237l-.829-3.835C22,39.509,21.968,39.47,21.921,39.47ZM10.014,46.806H2.131A2.453,2.453,0,0,1,.6,46.345a1.443,1.443,0,0,1-.6-1.2A1.578,1.578,0,0,1,.071,44.7l.758-2.839a.4.4,0,0,1,.45-.308h4.5c.2,0,.308.08.308.237A8.075,8.075,0,0,1,5.6,43.625a7.743,7.743,0,0,0-.485,1.906c0,.157.1.237.308.237h1.87a.4.4,0,0,0,.45-.308l2.368-8.877a.264.264,0,0,0,.024-.118,1.024,1.024,0,0,0-.414-.663c-.275-.251-.414-.4-.414-.45,0-.078.072-.118.213-.118h5.847c.189,0,.284.08.284.237v.071L13.21,44.7a2.636,2.636,0,0,1-1.16,1.491A3.608,3.608,0,0,1,10.014,46.806ZM56.73,31.789H47.393V.1H58.106a7.668,7.668,0,0,1,3.188.809,11.963,11.963,0,0,1,3.372,2.422,12.772,12.772,0,0,1,2.672,4.025,14.416,14.416,0,0,1,1.087,5.619V17.2a18.429,18.429,0,0,1-.708,4.975,16.388,16.388,0,0,1-2.154,4.716A10.433,10.433,0,0,1,56.73,31.789ZM52.9,4.423v22.7h4.521c1.224,0,2.648-1.047,3.809-2.8a11.838,11.838,0,0,0,1.361-2.838,10.414,10.414,0,0,0,.531-3.207c0-2.151-.025-2.435-.049-2.71s-.05-.564-.05-2.794a10.269,10.269,0,0,0-1.83-5.835A7.043,7.043,0,0,0,59.33,5.106a3.879,3.879,0,0,0-2.109-.683ZM7.4,31.548H1.7L1.6,0H9.953a11.779,11.779,0,0,1,7.911,2.6,8.855,8.855,0,0,1,2.343,3.283,11.978,11.978,0,0,1,.851,4.628,9.538,9.538,0,0,1-.937,4.159,10.39,10.39,0,0,1-2.208,3.016,10.779,10.779,0,0,1-2.577,1.837,5.069,5.069,0,0,1-2.042.62l9.042,9.435v1.769H17.422L7.4,20.246v11.3ZM7,4.718H7v11.3a19.59,19.59,0,0,0,3.145.2,5.334,5.334,0,0,0,3.427-1.339,5.926,5.926,0,0,0,1.88-4.656A6.265,6.265,0,0,0,14.9,7.5a4.507,4.507,0,0,0-1.385-1.685,5.378,5.378,0,0,0-1.79-.855,6.757,6.757,0,0,0-1.772-.238ZM43.466,31.548H25.874L25.776,0h17V5.013h-11.7v7.862H39.83v4.915H31.083v9.238H43.466v4.52h0Z" transform="translate(256.522 378.189)" fill="#88131b"/>
  </g>
</svg>
